<?xml version="1.0" standalone="no"?>
<!DOCTYPE svg PUBLIC "-//W3C//DTD SVG 20010904//EN"
 "http://www.w3.org/TR/2001/REC-SVG-20010904/DTD/svg10.dtd">
<svg version="1.0" xmlns="http://www.w3.org/2000/svg"
 width="500.000000pt" height="500.000000pt" viewBox="0 0 500.000000 500.000000"
 preserveAspectRatio="xMidYMid meet">
<metadata>
Created by potrace 1.14, written by Peter Selinger 2001-2017
</metadata>
<g transform="translate(0.000000,500.000000) scale(0.100000,-0.100000)"
fill="#000000" stroke="none">
<path d="M2340 4451 c0 -5 9 -13 20 -16 19 -6 20 -15 20 -155 l0 -150 -25 -6
c-50 -12 -23 -24 55 -24 81 0 103 12 55 30 -22 8 -25 15 -25 59 0 48 22 85 39
65 83 -98 94 -116 78 -126 -34 -19 -15 -28 58 -28 48 0 75 4 75 11 0 6 -9 13
-20 16 -10 3 -53 44 -94 92 l-74 87 60 67 c33 37 66 67 74 67 8 0 14 5 14 10
0 6 -27 10 -60 10 -62 0 -71 -5 -45 -24 12 -9 5 -22 -43 -80 l-57 -69 -3 62
c-3 63 7 91 34 91 8 0 14 5 14 10 0 6 -32 10 -75 10 -41 0 -75 -4 -75 -9z"/>
<path d="M2895 4411 c-79 -20 -124 -64 -146 -143 -32 -118 96 -243 227 -223
54 8 116 52 138 100 27 56 18 142 -18 189 -45 59 -134 93 -201 77z m137 -68
c55 -55 46 -167 -17 -230 -27 -27 -41 -33 -74 -33 -53 0 -97 22 -116 60 -38
73 1 201 70 231 39 17 105 3 137 -28z"/>
<path d="M1941 4386 c-47 -12 -68 -36 -32 -36 26 0 31 -13 70 -163 29 -113 30
-137 5 -137 -8 0 -14 -7 -14 -15 0 -19 1 -19 79 3 67 19 93 42 48 42 -29 0
-30 2 -68 140 -33 119 -35 148 -14 156 23 9 18 24 -7 23 -13 -1 -43 -6 -67
-13z"/>
<path d="M1712 4311 c-56 -29 -67 -46 -29 -46 18 0 31 -18 70 -94 26 -52 46
-96 44 -98 -3 -2 -67 30 -143 70 l-138 75 -43 -21 c-50 -24 -54 -34 -15 -39
23 -3 33 -15 69 -88 23 -47 49 -104 59 -128 16 -40 16 -43 -1 -62 -30 -33 -8
-36 50 -7 59 29 70 47 30 47 -21 0 -31 12 -66 81 -72 145 -79 141 97 50 129
-66 184 -86 184 -66 0 2 -29 65 -65 140 -36 76 -65 146 -65 156 0 10 8 22 18
28 11 6 14 13 7 20 -7 6 -28 0 -63 -18z"/>
<path d="M3290 4295 c0 -8 5 -15 10 -15 22 0 7 -50 -48 -160 -53 -107 -59
-115 -84 -113 -58 4 -24 -24 104 -85 l133 -63 17 23 c37 47 35 87 -2 53 -34
-30 -113 -15 -150 30 -17 21 -4 62 58 180 37 71 52 90 69 90 44 0 34 16 -31
45 -79 35 -76 34 -76 15z"/>
<path d="M3660 4105 c0 -3 5 -14 12 -24 10 -17 2 -33 -67 -123 -93 -122 -102
-131 -126 -118 -37 20 -28 -9 13 -43 79 -63 181 -137 189 -137 13 0 62 70 55
77 -4 4 -16 2 -26 -5 -30 -19 -62 -14 -103 13 -25 17 -37 33 -37 49 0 23 53
106 69 106 20 0 43 -40 37 -65 -10 -40 15 -30 52 20 42 57 44 79 4 54 -18 -11
-72 3 -72 19 0 13 69 102 79 102 4 0 27 -18 51 -40 37 -34 42 -43 37 -69 -9
-43 8 -47 32 -7 12 18 21 36 21 39 0 4 -45 40 -100 82 -89 67 -120 85 -120 70z"/>
<path d="M1186 4001 c-3 -5 15 -77 39 -162 47 -160 52 -188 34 -206 -8 -8 -8
-13 0 -17 6 -4 31 9 56 29 45 37 52 57 16 48 -14 -4 -24 3 -35 26 -24 46 -19
63 29 99 l45 32 41 -25 c39 -25 40 -27 25 -50 -28 -43 0 -36 64 15 46 37 58
51 47 56 -9 3 -21 3 -26 0 -12 -8 -64 18 -211 103 -110 64 -116 66 -124 52z
m107 -106 l47 -27 -37 -29 -37 -30 -18 58 c-10 32 -18 59 -18 61 0 4 -2 4 63
-33z"/>
<path d="M3973 3827 c2 -30 -9 -44 -130 -160 -100 -96 -138 -127 -158 -127
-24 0 -26 3 -23 38 3 34 1 37 -22 37 -20 0 -26 -6 -28 -28 -5 -38 45 -87 88
-87 47 0 64 12 197 141 68 66 128 119 136 119 7 0 18 -5 24 -11 8 -8 13 -7 18
1 7 11 -80 110 -97 110 -4 0 -6 -15 -5 -33z"/>
<path d="M884 3712 c-53 -64 -104 -125 -113 -135 -14 -16 -12 -20 16 -49 36
-35 62 -31 37 7 -19 29 -13 53 24 87 l27 26 108 -90 c101 -85 124 -116 97
-133 -14 -9 -12 -25 3 -25 16 0 122 128 113 137 -3 4 -17 1 -30 -7 -14 -7 -31
-10 -38 -7 -26 11 -208 169 -208 181 0 7 13 25 29 40 25 24 35 27 65 22 45 -9
46 4 2 38 l-34 26 -98 -118z"/>
<path d="M1930 3650 l0 -150 70 0 70 0 0 150 0 150 -70 0 -70 0 0 -150z"/>
<path d="M2112 3653 l3 -148 398 -3 397 -2 0 150 0 150 -400 0 -401 0 3 -147z"/>
<path d="M2960 3649 l0 -150 53 3 52 3 3 148 3 147 -56 0 -55 0 0 -151z"/>
<path d="M4227 3674 c-12 -12 -8 -42 6 -47 21 -8 39 8 35 29 -3 19 -29 30 -41
18z"/>
<path d="M4142 3643 c3 -22 -7 -35 -57 -75 -33 -27 -84 -65 -113 -86 -45 -31
-56 -34 -72 -24 -24 15 -30 15 -30 1 0 -13 82 -119 92 -119 5 0 7 14 6 32 -3
28 4 37 72 90 136 105 145 111 169 97 37 -24 34 0 -8 56 -46 61 -63 69 -59 28z"/>
<path d="M1937 3412 c-10 -11 -81 -281 -181 -694 l-165 -676 132 -133 c100
-101 153 -165 216 -259 146 -220 278 -522 341 -777 12 -51 26 -93 31 -93 4 0
21 21 36 48 l28 47 0 676 c0 652 -1 678 -19 698 -23 26 -65 27 -148 5 -33 -8
-62 -14 -64 -12 -2 2 104 49 234 104 l237 99 -3 -755 c-2 -518 0 -771 7 -805
13 -56 56 -120 65 -95 2 8 18 66 35 128 109 399 371 843 615 1043 36 30 66 60
66 66 0 7 -74 317 -165 689 -102 421 -171 684 -182 696 -15 17 -45 18 -558 18
-510 0 -543 -1 -558 -18z"/>
<path d="M872 3164 c-63 -81 -112 -169 -112 -202 0 -11 10 -46 22 -77 18 -48
23 -54 31 -38 6 10 23 33 39 51 17 20 28 44 28 62 0 37 16 116 42 203 10 38
17 71 15 74 -3 2 -32 -30 -65 -73z"/>
<path d="M4064 3225 c18 -49 46 -166 55 -226 7 -52 17 -76 47 -116 l38 -51 19
56 c11 32 19 67 19 80 -3 47 -102 204 -163 257 -22 20 -22 20 -15 0z"/>
<path d="M655 2928 c6 -138 8 -144 37 -187 17 -24 44 -67 59 -95 l29 -51 2 80
c3 120 -1 163 -22 216 -20 49 -97 179 -107 179 -3 0 -2 -64 2 -142z"/>
<path d="M4306 3010 c-72 -113 -86 -159 -86 -300 l1 -125 25 50 c14 27 42 71
61 98 l36 49 5 144 c3 79 3 144 1 144 -2 0 -21 -27 -43 -60z"/>
<path d="M985 2966 c-136 -64 -175 -123 -183 -275 l-4 -96 59 60 c37 37 65 76
73 100 14 45 56 128 95 193 14 23 23 42 18 42 -4 0 -30 -11 -58 -24z"/>
<path d="M3995 2918 c25 -39 56 -102 71 -140 19 -52 39 -82 80 -122 l54 -53 0
74 c0 148 -37 213 -158 276 -39 21 -75 37 -80 37 -6 0 9 -32 33 -72z"/>
<path d="M600 2801 c0 -7 10 -70 21 -140 21 -122 23 -127 63 -171 23 -25 51
-58 63 -75 l22 -30 1 80 c0 44 -5 97 -10 117 -19 65 -160 259 -160 219z"/>
<path d="M4348 2754 c-26 -33 -62 -86 -79 -118 -28 -51 -33 -72 -37 -153 -3
-51 -3 -93 0 -93 3 0 33 34 67 76 l62 75 20 116 c28 161 25 169 -33 97z"/>
<path d="M908 2673 c-80 -61 -118 -129 -118 -212 l0 -56 21 35 c11 19 45 60
74 90 36 37 62 76 79 119 14 36 26 66 26 68 0 11 -27 -3 -82 -44z"/>
<path d="M4026 2683 c9 -21 21 -51 27 -68 6 -16 36 -55 67 -85 31 -30 66 -75
78 -100 l22 -45 -6 65 c-8 91 -21 127 -63 173 -34 38 -115 97 -133 97 -5 0 -1
-17 8 -37z"/>
<path d="M929 2545 c-31 -25 -71 -67 -88 -94 -44 -68 -48 -122 -18 -241 23
-90 25 -94 36 -67 6 16 25 48 41 72 24 35 33 62 41 126 5 44 21 115 34 157 36
112 36 112 -46 47z"/>
<path d="M4003 2576 c22 -58 47 -157 58 -227 9 -67 20 -97 50 -148 22 -36 39
-70 39 -75 1 -25 19 24 34 91 35 157 8 236 -116 333 -51 41 -74 50 -65 26z"/>
<path d="M560 2568 c0 -17 62 -232 81 -278 5 -14 25 -36 45 -49 19 -13 60 -51
91 -84 30 -34 53 -52 50 -41 -3 10 -18 66 -32 124 -18 74 -36 120 -60 155 -46
67 -175 195 -175 173z"/>
<path d="M4353 2496 c-94 -98 -117 -140 -147 -269 -14 -60 -26 -111 -26 -113
0 -2 24 20 53 49 28 29 69 66 90 83 35 27 41 39 81 177 28 91 40 147 33 147
-7 0 -44 -33 -84 -74z"/>
<path d="M961 2255 c-60 -63 -101 -143 -101 -198 0 -21 8 -70 17 -110 l17 -72
7 40 c10 55 25 90 65 156 24 41 34 69 34 100 1 24 5 64 10 89 4 25 7 46 6 48
-2 1 -26 -22 -55 -53z"/>
<path d="M3990 2301 c0 -8 5 -55 12 -105 9 -70 17 -99 40 -132 33 -49 58 -115
58 -152 0 -38 15 -15 29 43 21 83 16 148 -15 205 -31 57 -123 162 -124 141z"/>
<path d="M570 2286 c0 -4 88 -201 120 -269 8 -17 49 -52 100 -86 l87 -58 -13
46 c-7 25 -20 72 -29 103 -12 46 -28 71 -77 124 -68 72 -188 162 -188 140z"/>
<path d="M4355 2244 c-134 -100 -172 -153 -204 -281 -12 -45 -21 -84 -21 -87
0 -3 20 9 45 28 24 19 62 44 84 57 36 20 45 35 105 168 37 80 66 149 66 154 0
14 -15 6 -75 -39z"/>
<path d="M1011 2101 c-55 -71 -84 -137 -89 -203 -4 -48 1 -67 25 -120 16 -35
44 -85 61 -113 28 -45 32 -47 32 -24 0 15 9 56 20 91 17 57 18 72 8 124 -6 32
-11 112 -11 177 0 64 -2 117 -3 117 -2 0 -21 -22 -43 -49z"/>
<path d="M3948 2070 c3 -46 -1 -127 -8 -181 -12 -86 -11 -104 3 -156 10 -33
17 -73 17 -89 l0 -29 20 25 c11 14 38 62 61 107 34 66 42 92 42 136 0 67 -41
161 -100 227 l-40 44 5 -84z"/>
<path d="M635 1954 c68 -117 156 -244 168 -244 17 0 152 -65 189 -92 l30 -21
-12 24 c-56 107 -128 214 -164 246 -46 40 -179 121 -217 130 -22 6 -22 5 6
-43z"/>
<path d="M4303 1961 c-127 -67 -177 -112 -234 -209 -28 -48 -61 -103 -72 -122
l-22 -35 35 23 c19 13 69 39 110 58 41 19 82 38 90 43 15 8 180 259 180 274 0
12 -13 8 -87 -32z"/>
<path d="M1138 1850 c-40 -60 -71 -145 -75 -209 -5 -62 -2 -71 36 -146 22 -44
51 -93 65 -110 l25 -30 -10 43 c-9 44 -7 74 13 164 8 38 6 61 -7 115 -9 37
-20 97 -24 133 -6 65 -6 65 -23 40z"/>
<path d="M3846 1837 c-3 -12 -6 -34 -6 -48 0 -14 -9 -61 -20 -103 -18 -73 -19
-81 -4 -144 11 -44 14 -88 10 -127 l-6 -60 31 45 c16 25 44 72 61 104 47 91
41 179 -18 298 -29 56 -40 65 -48 35z"/>
<path d="M720 1693 c12 -16 73 -88 137 -161 78 -90 123 -134 141 -138 15 -3
56 -14 92 -24 35 -11 65 -18 66 -17 6 6 -117 192 -145 221 -40 41 -119 84
-219 120 -92 33 -98 32 -72 -1z"/>
<path d="M4179 1682 c-158 -63 -182 -85 -286 -250 -45 -71 -49 -82 -30 -76 12
4 53 15 90 25 37 9 75 23 84 31 24 19 243 270 254 291 14 25 -2 22 -112 -21z"/>
<path d="M1235 1634 c-26 -61 -47 -175 -40 -218 11 -70 61 -139 166 -227 l47
-39 -9 37 c-5 21 -9 61 -9 90 0 41 -9 70 -44 140 -25 48 -55 124 -67 168 -11
44 -23 82 -25 84 -1 2 -10 -14 -19 -35z"/>
<path d="M3728 1599 c-9 -38 -39 -118 -67 -177 -43 -93 -50 -117 -54 -184 -5
-91 -5 -91 94 4 90 86 113 138 106 231 -5 65 -38 180 -55 191 -4 2 -15 -27
-24 -65z"/>
<path d="M1423 1405 c-4 -17 -8 -75 -8 -130 0 -91 2 -104 27 -147 16 -25 52
-67 80 -93 57 -49 194 -145 209 -145 9 0 -27 103 -55 158 -8 16 -46 70 -83
119 -38 48 -89 128 -115 178 -45 87 -47 89 -55 60z"/>
<path d="M3521 1335 c-25 -47 -67 -113 -95 -148 -28 -34 -64 -85 -82 -114 -35
-59 -80 -171 -71 -179 10 -11 183 115 240 174 34 37 59 73 66 98 17 62 11 254
-8 254 -3 0 -26 -39 -50 -85z"/>
<path d="M880 1376 c8 -7 67 -56 131 -108 l116 -95 76 -7 c41 -4 99 -13 129
-21 29 -7 54 -12 56 -10 9 8 -191 172 -236 192 -51 24 -212 63 -262 63 -21 0
-22 -2 -10 -14z"/>
<path d="M4055 1384 c-211 -43 -218 -47 -420 -227 l-40 -36 45 16 c25 8 88 20
140 26 l95 11 123 99 c67 54 125 103 128 108 5 9 -33 10 -71 3z"/>
<path d="M1055 1142 c22 -23 331 -203 382 -222 61 -23 182 -37 206 -24 13 7
-3 24 -80 84 -132 104 -170 128 -228 146 -61 19 -295 32 -280 16z"/>
<path d="M3713 1135 c-84 -15 -131 -40 -228 -122 -39 -32 -88 -69 -109 -83
-34 -21 -37 -25 -20 -31 53 -21 169 -2 259 44 77 38 323 186 331 198 8 13
-149 9 -233 -6z"/>
<path d="M3187 839 c-20 -15 -26 -27 -21 -41 5 -17 3 -18 -15 -8 -14 7 -27 8
-38 2 -14 -8 -9 -14 27 -38 24 -16 49 -33 56 -39 19 -14 30 3 16 25 -7 11 -12
36 -12 56 l0 37 30 -41 c20 -27 35 -40 45 -36 8 4 15 8 15 11 0 8 -63 93 -69
93 -3 0 -19 -10 -34 -21z"/>
<path d="M1746 821 c-24 -26 -17 -73 12 -86 12 -5 22 -13 22 -17 0 -17 29 -6
44 17 15 23 15 25 -6 39 -24 17 -42 11 -34 -10 6 -16 -10 -19 -19 -4 -9 14 13
50 30 50 8 0 19 -9 25 -20 14 -25 30 -26 30 -1 0 47 -71 69 -104 32z"/>
<path d="M2462 828 c-7 -7 -12 -24 -12 -38 0 -33 17 -50 50 -50 33 0 50 17 50
50 0 14 -5 31 -12 38 -15 15 -61 15 -76 0z"/>
<path d="M1846 751 c-14 -27 -26 -51 -26 -55 0 -10 77 -46 84 -39 12 12 6 22
-21 37 -16 8 -21 15 -13 15 8 1 22 -3 30 -9 25 -16 32 13 7 33 -20 17 -20 18
-2 12 33 -11 37 -11 42 2 2 7 -13 21 -35 32 l-39 20 -27 -48z"/>
<path d="M3049 760 c-13 -8 -14 -19 -8 -66 4 -31 10 -58 13 -61 9 -10 26 8 26
29 0 18 4 19 33 14 50 -9 52 3 5 51 -46 47 -46 47 -69 33z"/>
<path d="M1936 698 c-13 -29 -21 -56 -19 -60 9 -16 32 -7 39 14 6 20 8 19 18
-12 16 -51 43 -46 68 13 18 41 19 50 7 57 -10 7 -19 0 -31 -23 l-17 -32 -1 37
c0 27 -6 40 -20 48 -18 10 -22 5 -44 -42z"/>
<path d="M2960 718 c-25 -10 -46 -23 -48 -27 -1 -5 -13 -6 -25 -4 -31 6 -65
-31 -51 -55 6 -9 24 -20 40 -23 l29 -7 -27 -1 c-30 -1 -41 -31 -12 -31 9 0 18
-9 21 -20 3 -11 9 -20 14 -20 9 0 23 20 24 35 1 6 5 18 9 28 12 26 0 47 -28
47 -14 0 -28 5 -32 11 -4 8 0 9 15 4 13 -4 27 -1 37 9 23 23 31 20 44 -19 13
-40 21 -47 39 -36 10 7 9 16 -3 46 -15 35 -15 39 1 51 34 24 1 33 -47 12z"/>
<path d="M2067 672 c-19 -21 -23 -77 -7 -87 6 -4 8 -15 5 -26 -5 -15 -1 -19
14 -19 12 0 21 6 21 14 0 8 10 16 23 18 34 5 28 33 -7 33 -35 0 -42 14 -21 40
14 19 16 19 29 3 18 -24 36 -23 36 2 0 38 -65 53 -93 22z"/>
<path d="M2281 658 c-5 -13 -12 -46 -16 -74 -5 -41 -3 -52 8 -57 19 -7 25 8
33 88 5 47 3 65 -5 65 -6 0 -15 -10 -20 -22z"/>
<path d="M2177 656 c-3 -8 -8 -34 -12 -59 l-7 -45 38 -11 c39 -11 62 -2 50 18
-4 6 -16 11 -27 11 -18 0 -20 4 -14 44 5 33 3 44 -8 49 -9 3 -18 0 -20 -7z"/>
<path d="M2793 662 c-15 -10 5 -102 24 -109 23 -9 25 3 12 61 -12 57 -15 61
-36 48z"/>
<path d="M2701 641 c-9 -6 -11 -22 -6 -57 l6 -49 -26 48 c-19 35 -31 47 -48
47 -20 0 -25 -8 -35 -51 -7 -28 -12 -55 -12 -60 0 -16 29 -10 39 8 8 15 13 16
33 5 22 -12 46 -11 121 4 36 7 29 29 -9 29 -25 1 -29 5 -35 38 -7 44 -10 49
-28 38z"/>
<path d="M2320 627 c0 -8 -3 -35 -6 -61 -6 -42 -5 -46 15 -46 13 0 21 6 22 18
0 14 3 13 16 -5 8 -13 24 -23 35 -23 20 0 20 0 -1 35 l-20 35 24 16 c14 9 25
20 25 25 0 17 -34 9 -57 -13 l-23 -22 2 24 c2 16 -3 25 -14 28 -11 2 -18 -2
-18 -11z"/>
<path d="M2480 610 c-26 -26 -26 -64 0 -90 12 -12 18 -25 15 -30 -8 -13 10
-21 30 -14 9 4 14 12 12 19 -3 6 4 17 14 23 22 14 25 42 5 42 -7 0 -19 -7 -26
-15 -16 -19 -30 -10 -30 20 0 28 17 42 33 26 16 -16 37 -14 37 4 0 16 -30 35
-54 35 -9 0 -25 -9 -36 -20z"/>
</g>
</svg>
